<?xml version="1.0" encoding="UTF-8" standalone="no"?>
<!DOCTYPE svg PUBLIC "-//W3C//DTD SVG 1.1//EN"
 "http://www.w3.org/Graphics/SVG/1.1/DTD/svg11.dtd">
<!-- Generated by graphviz version 7.1.0 (20230121.1956)
 -->
<!-- Title: G Pages: 1 -->
<svg width="187pt" height="120pt"
 viewBox="0.00 0.00 187.00 120.00" xmlns="http://www.w3.org/2000/svg" xmlns:xlink="http://www.w3.org/1999/xlink">
<g id="graph0" class="graph" transform="scale(1 1) rotate(0) translate(4 116)">
<title>G</title>
<polygon fill="white" stroke="none" points="-4,4 -4,-116 183,-116 183,4 -4,4"/>
<!-- main -->
<g id="node1" class="node">
<title>main</title>
<path fill="lightgrey" stroke="black" d="M104.5,-112C104.5,-112 74.5,-112 74.5,-112 68.5,-112 62.5,-106 62.5,-100 62.5,-100 62.5,-86 62.5,-86 62.5,-80 68.5,-74 74.5,-74 74.5,-74 104.5,-74 104.5,-74 110.5,-74 116.5,-80 116.5,-86 116.5,-86 116.5,-100 116.5,-100 116.5,-106 110.5,-112 104.5,-112"/>
<text text-anchor="middle" x="89.5" y="-96.8" font-family="Times,serif" font-size="14.00">main</text>
<text text-anchor="middle" x="89.5" y="-81.8" font-family="Times,serif" font-size="14.00">&lt;&gt;</text>
</g>
<!-- pr_example -->
<g id="node2" class="node">
<title>pr_example</title>
<g id="a_node2"><a xlink:href="https://github.com/sposmen/gh_pr_tree_render/pull/1" xlink:title="Commit for the example case&#10;&lt;sposmen&gt;" target="_blank">
<path fill="#f8f3d1" stroke="black" d="M167,-38C167,-38 12,-38 12,-38 6,-38 0,-32 0,-26 0,-26 0,-12 0,-12 0,-6 6,0 12,0 12,0 167,0 167,0 173,0 179,-6 179,-12 179,-12 179,-26 179,-26 179,-32 173,-38 167,-38"/>
<text text-anchor="middle" x="89.5" y="-22.8" font-family="Times,serif" font-size="14.00">Commit for the example case</text>
<text text-anchor="middle" x="89.5" y="-7.8" font-family="Times,serif" font-size="14.00">&lt;sposmen&gt;</text>
</a>
</g>
</g>
<!-- main&#45;&gt;pr_example -->
<g id="edge1" class="edge">
<title>main&#45;&gt;pr_example</title>
<path fill="none" stroke="black" d="M89.5,-62.44C89.5,-54.31 89.5,-45.72 89.5,-38.41"/>
<polygon fill="black" stroke="black" points="86,-62.32 89.5,-72.32 93,-62.32 86,-62.32"/>
</g>
</g>
</svg>
